<svg width="24" height="24" viewBox="0 0 24 24" fill="none" xmlns="http://www.w3.org/2000/svg">
<path d="M3.66668 0.333313C2.78262 0.333313 1.93478 0.684502 1.30965 1.30962C0.684533 1.93474 0.333344 2.78259 0.333344 3.66665V20.3333C0.333344 21.2174 0.684533 22.0652 1.30965 22.6903C1.93478 23.3155 2.78262 23.6666 3.66668 23.6666H20.3333C21.2174 23.6666 22.0652 23.3155 22.6904 22.6903C23.3155 22.0652 23.6667 21.2174 23.6667 20.3333V3.66665C23.6667 2.78259 23.3155 1.93474 22.6904 1.30962C22.0652 0.684502 21.2174 0.333313 20.3333 0.333313H3.66668ZM10.3333 17.69L5.82168 13.1783L8.17834 10.8216L10.3333 12.9766L16.655 6.65498L19.0117 9.01165L10.3333 17.69Z" fill="#394FE1"/>
</svg>
